<svg version="1.2" xmlns="http://www.w3.org/2000/svg" viewBox="0 0 24 24" width="80" height="80">
	<title>checked-svg</title>
	<style>
		.s0 { fill: #ffffff } 
		.s1 { fill: #1d9bf0 } 
	</style>
	<g id="g963">
		<path id="Forma 1" class="s0" d="m7 7h10v10h-10z"/>
		<path id="path961" fill-rule="evenodd" class="s1" d="m20.1 15.3c0.4 1.4 0.2 2.9-0.9 3.9-1 1.1-2.5 1.3-3.9 0.9-0.6 1.3-1.9 2.1-3.3 2.1-1.4 0-2.7-0.8-3.3-2.1-1.4 0.4-2.9 0.2-4-0.9-1-1-1.2-2.5-0.8-3.9-1.3-0.6-2.2-1.9-2.2-3.3 0-1.4 0.9-2.7 2.2-3.3-0.4-1.4-0.2-2.9 0.8-4 1.1-1 2.6-1.2 4-0.8 0.6-1.3 1.9-2.2 3.3-2.2 1.4 0 2.7 0.9 3.3 2.2 1.4-0.4 2.9-0.2 3.9 0.8 1.1 1.1 1.3 2.6 0.9 4 1.3 0.6 2.1 1.9 2.1 3.3 0 1.4-0.8 2.7-2.1 3.3zm-3.4-5.9l-1.4-1.3-4.8 5.2-2.3-2.3-1.4 1.5 3.7 3.7z"/>
	</g>
</svg>